<?xml version="1.0" encoding="UTF-8"?>
<!DOCTYPE svg PUBLIC "-//W3C//DTD SVG 1.1//EN" "http://www.w3.org/Graphics/SVG/1.1/DTD/svg11.dtd">
<!-- Creator: CorelDRAW -->
<svg xmlns="http://www.w3.org/2000/svg" xml:space="preserve" width="26.4582mm" height="26.4582mm" style="shape-rendering:geometricPrecision; text-rendering:geometricPrecision; image-rendering:optimizeQuality; fill-rule:evenodd; clip-rule:evenodd"
viewBox="0 0 26.4582 26.4582"
 xmlns:xlink="http://www.w3.org/1999/xlink">
 <defs>
  <style type="text/css">
   <![CDATA[
    .fil0 {fill:#C5C6C6}
    .fil1 {fill:#2B2A29;fill-rule:nonzero}
   ]]>
  </style>
 </defs>
 <g id="Réteg_x0020_1">
  <metadata id="CorelCorpID_0Corel-Layer"/>
  <rect class="fil0" y="-5.08484e-005" width="26.4583" height="26.4583"/>
  <path class="fil1" d="M1.3229 20.1575l0 -2.3169 0.8739 0c0.1538,0 0.2713,0.0075 0.3523,0.0221 0.1138,0.0188 0.2093,0.0549 0.2864,0.1083 0.0766,0.053 0.1386,0.1279 0.1856,0.2235 0.0469,0.0959 0.0701,0.2012 0.0701,0.316 0,0.1969 -0.0626,0.3642 -0.1877,0.5006 -0.1257,0.136 -0.3522,0.2045 -0.6797,0.2045l-0.5945 0 0 0.9419 -0.3064 0zm0.3064 -1.2155l0.5994 0c0.198,0 0.3387,-0.0366 0.4218,-0.1105 0.0831,-0.0739 0.1246,-0.1775 0.1246,-0.3112 0,-0.0972 -0.0243,-0.1802 -0.0734,-0.2493 -0.0491,-0.069 -0.1132,-0.1144 -0.1937,-0.1365 -0.0517,-0.0135 -0.1467,-0.0205 -0.2859,-0.0205l-0.5928 0 0 0.828zm1.8396 1.2155l0 -2.3169 0.3069 0 0 2.0434 1.141 0 0 0.2735 -1.4479 0zm1.5584 0l0.8901 -2.3169 0.3302 0 0.9483 2.3169 -0.3495 0 -0.2703 -0.7018 -0.9688 0 -0.2542 0.7018 -0.3258 0zm0.6684 -0.9516l0.786 0 -0.2423 -0.6414c-0.0733,-0.1948 -0.1283,-0.355 -0.1639,-0.4807 -0.0296,0.1489 -0.0712,0.2962 -0.1252,0.4429l-0.2546 0.6792zm3.398 0.1391l0.3069 0.0777c-0.0641,0.2514 -0.1801,0.4435 -0.3468,0.5761 -0.1673,0.1323 -0.3711,0.198 -0.6128,0.198 -0.2497,0 -0.4526,-0.0506 -0.609,-0.1521 -0.1565,-0.1019 -0.2757,-0.2492 -0.3571,-0.4418 -0.0815,-0.1931 -0.1225,-0.4003 -0.1225,-0.6214 0,-0.2411 0.0459,-0.4515 0.1381,-0.6312 0.0923,-0.1796 0.2233,-0.3161 0.3938,-0.4095 0.1699,-0.0933 0.3571,-0.1397 0.5616,-0.1397 0.2319,0 0.4266,0.0588 0.5847,0.177 0.1581,0.1181 0.2681,0.2837 0.3301,0.4979l-0.3015 0.0712c-0.0539,-0.1689 -0.1316,-0.2913 -0.2341,-0.3684 -0.102,-0.0772 -0.2304,-0.1155 -0.3858,-0.1155 -0.1779,0 -0.3263,0.0426 -0.446,0.1278 -0.1198,0.0858 -0.204,0.2003 -0.252,0.3442 -0.0485,0.1435 -0.0728,0.2919 -0.0728,0.4445 0,0.1975 0.0286,0.3691 0.0857,0.5163 0.0578,0.1468 0.1468,0.2568 0.2681,0.3296 0.1214,0.0729 0.2525,0.109 0.3938,0.109 0.1716,0 0.3168,-0.0496 0.4359,-0.1483 0.1192,-0.0993 0.1996,-0.2466 0.2417,-0.4414zm0.6911 0.8125l0 -2.3169 1.675 0 0 0.2734 -1.3687 0 0 0.7094 1.2818 0 0 0.2719 -1.2818 0 0 0.7887 1.4226 0 0 0.2735 -1.7289 0zm2.1615 0l0 -2.3169 0.307 0 0 0.9515 1.2041 0 0 -0.9515 0.3069 0 0 2.3169 -0.3069 0 0 -1.0919 -1.2041 0 0 1.0919 -0.307 0zm2.235 -1.1286c0,-0.3846 0.103,-0.6856 0.3096,-0.903 0.2067,-0.2174 0.4731,-0.3263 0.8,-0.3263 0.2136,0 0.4068,0.0511 0.5783,0.1531 0.1716,0.1026 0.3026,0.245 0.3927,0.4278 0.0901,0.1823 0.1349,0.3901 0.1349,0.6215 0,0.2352 -0.0469,0.4456 -0.1419,0.6306 -0.0949,0.1856 -0.2292,0.3258 -0.4029,0.4213 -0.1743,0.0955 -0.3614,0.1429 -0.5626,0.1429 -0.2186,0 -0.4133,-0.0522 -0.5849,-0.1579 -0.172,-0.1053 -0.302,-0.2493 -0.3905,-0.4316 -0.0885,-0.1818 -0.1327,-0.3749 -0.1327,-0.5784zm0.3161 0.0049c0,0.2795 0.075,0.499 0.2249,0.6598 0.1506,0.1607 0.3389,0.2411 0.5654,0.2411 0.2309,0 0.4208,-0.0809 0.5697,-0.2433 0.1488,-0.1624 0.2239,-0.3927 0.2239,-0.6911 0,-0.1882 -0.0324,-0.3528 -0.0961,-0.4935 -0.0637,-0.1409 -0.157,-0.2498 -0.2794,-0.3275 -0.123,-0.0772 -0.2606,-0.116 -0.4132,-0.116 -0.2175,0 -0.4041,0.0744 -0.5605,0.2239 -0.1565,0.1489 -0.2347,0.3981 -0.2347,0.7466zm2.2819 1.1237l0 -2.3169 0.307 0 0 2.0434 1.1409 0 0 0.2735 -1.4479 0zm1.8131 0l0 -2.3169 0.7978 0c0.1802,0 0.3178,0.0112 0.4127,0.0334 0.1327,0.0301 0.246,0.0857 0.3399,0.1656 0.1219,0.1036 0.2136,0.2352 0.274,0.396 0.061,0.1607 0.0912,0.3441 0.0912,0.5508 0,0.1758 -0.0205,0.3316 -0.0621,0.4676 -0.041,0.136 -0.0933,0.2488 -0.1581,0.3378 -0.0641,0.089 -0.1343,0.1591 -0.2108,0.2098 -0.0761,0.0512 -0.1684,0.0901 -0.2763,0.1165 -0.1083,0.0265 -0.2325,0.0394 -0.3722,0.0394l-0.8361 0zm0.3064 -0.2735l0.4947 0c0.1526,0 0.2729,-0.0141 0.3598,-0.0426 0.0868,-0.0286 0.1559,-0.0685 0.2076,-0.1204 0.0729,-0.0722 0.1296,-0.1704 0.17,-0.2928 0.0405,-0.1231 0.061,-0.2714 0.061,-0.4467 0,-0.2422 -0.0399,-0.4284 -0.1192,-0.5584 -0.0799,-0.1305 -0.1764,-0.2174 -0.2903,-0.2616 -0.0819,-0.0318 -0.2147,-0.0475 -0.3965,-0.0475l-0.4871 0 0 1.77zm2.0375 0.2735l0 -2.3169 1.675 0 0 0.2734 -1.3686 0 0 0.7094 1.2817 0 0 0.2719 -1.2817 0 0 0.7887 1.4226 0 0 0.2735 -1.729 0zm2.1573 0l0 -2.3169 1.0271 0c0.2066,0 0.3635,0.021 0.4709,0.0625 0.1074,0.0415 0.1931,0.1149 0.2579,0.2201 0.0642,0.1058 0.096,0.2223 0.096,0.3495 0,0.1646 -0.0529,0.3027 -0.1597,0.4155 -0.1062,0.1127 -0.2707,0.1844 -0.493,0.2151 0.0814,0.039 0.1429,0.0772 0.185,0.1156 0.0896,0.0819 0.1743,0.1849 0.2546,0.308l0.403 0.6306 -0.3857 0 -0.3064 -0.4823c-0.0895,-0.1386 -0.1635,-0.2454 -0.2217,-0.3188 -0.0578,-0.074 -0.1095,-0.1257 -0.1554,-0.1548 -0.0458,-0.0297 -0.0923,-0.0502 -0.1397,-0.0621 -0.0351,-0.007 -0.0917,-0.0107 -0.171,-0.0107l-0.3555 0 0 1.0287 -0.3064 0zm0.3064 -1.2942l0.6592 0c0.1397,0 0.2498,-0.0146 0.3285,-0.0436 0.0793,-0.0292 0.1392,-0.0756 0.1802,-0.1392 0.041,-0.0637 0.0615,-0.1327 0.0615,-0.2078 0,-0.1094 -0.0394,-0.1995 -0.1192,-0.2702 -0.0794,-0.0707 -0.2051,-0.1058 -0.3771,-0.1058l-0.7331 0 0 0.7666z"/>
  <path class="fil1" d="M1.3228 12.7159l0 -5.5421 0.733 0 0 5.5421 -0.733 0zm2.0027 0l0 -5.5421 1.1046 0 1.311 3.924c0.1213,0.3651 0.2103,0.6387 0.2645,0.8206 0.0632,-0.2012 0.1613,-0.4981 0.2955,-0.889l1.3265 -3.8556 0.9871 0 0 5.5421 -0.7071 0 0 -4.6389 -1.6104 4.6389 -0.662 0 -1.6026 -4.7176 0 4.7176 -0.7071 0zm5.8635 0l2.129 -5.5421 0.7897 0 2.2686 5.5421 -0.8362 0 -0.6465 -1.6788 -2.3174 0 -0.6079 1.6788 -0.7793 0zm1.5988 -2.2762l1.88 0 -0.5794 -1.5343c-0.1754,-0.4658 -0.3071,-0.849 -0.3923,-1.1497 -0.0709,0.3561 -0.1703,0.7084 -0.2993,1.0594l-0.609 1.6246zm6.7679 0.102l0 -0.6491 2.3472 -0.0039 0 2.0556c-0.36,0.2877 -0.7316,0.5032 -1.1149,0.649 -0.3832,0.1446 -0.7768,0.2168 -1.1794,0.2168 -0.5445,0 -1.04,-0.1161 -1.4839,-0.3497 -0.4452,-0.2322 -0.7807,-0.5703 -1.0078,-1.0103 -0.2271,-0.4414 -0.3407,-0.9343 -0.3407,-1.4788 0,-0.5394 0.1136,-1.0426 0.3395,-1.5098 0.2245,-0.4684 0.5496,-0.8155 0.9729,-1.0426 0.4232,-0.2258 0.911,-0.3394 1.4633,-0.3394 0.4,0 0.7625,0.0646 1.0864,0.1949 0.3239,0.129 0.5781,0.3097 0.7614,0.542 0.1845,0.2322 0.3239,0.5342 0.4206,0.9071l-0.6619 0.1819c-0.0839,-0.2826 -0.1871,-0.5045 -0.3098,-0.6658 -0.1238,-0.1614 -0.3006,-0.2904 -0.5302,-0.3871 -0.2285,-0.0968 -0.484,-0.1459 -0.7627,-0.1459 -0.3355,0 -0.6258,0.0517 -0.8697,0.1536 -0.2451,0.1019 -0.4413,0.2362 -0.5923,0.4026 -0.1497,0.1665 -0.2658,0.3484 -0.3496,0.5485 -0.1407,0.3419 -0.2116,0.7135 -0.2116,1.1148 0,0.4942 0.0851,0.9072 0.2555,1.24 0.1702,0.333 0.418,0.5794 0.7432,0.7407 0.3252,0.1613 0.6696,0.2426 1.0349,0.2426 0.3186,0 0.6284,-0.0619 0.9303,-0.1845 0.3032,-0.1213 0.5317,-0.2516 0.6877,-0.3909l0 -1.0323 -1.6284 0zm3.444 2.1742l0 -5.5421 4.0066 0 0 0.6542 -3.2736 0 0 1.6968 3.0659 0 0 0.6503 -3.0659 0 0 1.8866 3.4027 0 0 0.6542 -4.1357 0z"/>
 </g>
</svg>
